<svg width="20" height="20" viewBox="0 0 20 20" fill="none" xmlns="http://www.w3.org/2000/svg">
<path fill-rule="evenodd" clip-rule="evenodd" d="M0.335727 0.0706152C0.257211 0.108987 0.149551 0.20069 0.0964814 0.274415C0.0206187 0.379873 0 0.468343 0 0.688742C0 0.901682 0.0208797 0.996749 0.0869985 1.08462C0.134848 1.14825 0.245162 1.24039 0.33216 1.28941C0.476404 1.37072 0.561532 1.37857 1.29806 1.37857H2.10576L2.12964 1.51869C2.14277 1.59578 2.4183 4.16158 2.74189 7.22053C3.06552 10.2795 3.3511 12.8598 3.3765 12.9547C3.40195 13.0496 3.49212 13.2586 3.5769 13.4193C3.67234 13.6 3.82232 13.794 3.97044 13.9282C4.10211 14.0474 4.30008 14.1903 4.41039 14.2456C4.52066 14.301 4.71724 14.3776 4.84721 14.4158C5.05927 14.4781 5.6723 14.4853 10.8346 14.4853C16.4487 14.4853 16.5925 14.4832 16.8654 14.3997C17.0192 14.3526 17.2617 14.2393 17.4043 14.1479C17.547 14.0566 17.7341 13.9002 17.8203 13.8004C17.9064 13.7007 18.0394 13.5029 18.1158 13.3609C18.237 13.1355 18.3648 12.5943 19.1261 9.08383C19.6321 6.75045 19.9986 4.96536 20 4.82769C20.0012 4.69727 19.9683 4.48929 19.9268 4.36551C19.8813 4.22987 19.7708 4.05168 19.6487 3.91712C19.5196 3.77472 19.3512 3.64926 19.1841 3.57096L18.9222 3.44813L11.3424 3.44809C5.30774 3.44804 3.76264 3.43705 3.76251 3.39415C3.76243 3.36453 3.69444 2.70747 3.6114 1.93405C3.5284 1.16067 3.44105 0.481622 3.41735 0.425056C3.3936 0.368534 3.3487 0.290756 3.31756 0.252298C3.28637 0.213797 3.19276 0.141107 3.10942 0.0907494C2.9643 0.00305536 2.90606 -0.000738634 1.71822 8.05337e-05C0.665191 0.000770359 0.457003 0.0113764 0.335727 0.0706152ZM18.5786 4.90314C18.5658 4.94466 18.1829 6.70281 17.7277 8.81014C17.1773 11.3586 16.8719 12.6869 16.8158 12.7766C16.7694 12.8509 16.6665 12.9504 16.5871 12.9978C16.4447 13.0829 16.3656 13.084 10.8313 13.084C5.26576 13.084 5.21869 13.0833 5.06919 12.9963C4.98632 12.948 4.87979 12.8429 4.83251 12.7626C4.75926 12.6382 4.68705 12.0597 4.34314 8.8408C4.12125 6.76399 3.93903 5.01145 3.93821 4.94626L3.93668 4.82769H11.2692C18.2325 4.82769 18.6006 4.83149 18.5786 4.90314ZM5.6014 15.9525C5.45237 16.0006 5.20769 16.1229 5.05766 16.2242C4.90324 16.3285 4.69718 16.5229 4.58265 16.6723C4.47138 16.8176 4.33627 17.0493 4.28242 17.1875C4.21625 17.3571 4.17793 17.567 4.16427 17.8347C4.14783 18.1563 4.16149 18.2877 4.23683 18.5335C4.2879 18.7001 4.41352 18.9584 4.51605 19.1075C4.62184 19.2614 4.81772 19.4654 4.96883 19.5792C5.11534 19.6895 5.34919 19.8234 5.48856 19.8768C5.65973 19.9423 5.87149 19.9803 6.14153 19.9939C6.46604 20.0101 6.59858 19.9966 6.84665 19.9219C7.01469 19.8713 7.2753 19.7468 7.42576 19.6452C7.58101 19.5403 7.78689 19.3462 7.90164 19.1964C8.01291 19.0512 8.14802 18.8194 8.20187 18.6813C8.26804 18.5116 8.30636 18.3018 8.32002 18.0341C8.33646 17.7125 8.3228 17.5811 8.24746 17.3352C8.19639 17.1687 8.07077 16.9104 7.96824 16.7612C7.86245 16.6074 7.66657 16.4033 7.51546 16.2896C7.36895 16.1793 7.1351 16.0452 6.99573 15.9916C6.80859 15.9195 6.62872 15.8903 6.30739 15.8796C5.95966 15.868 5.81807 15.8826 5.6014 15.9525ZM13.9533 15.9525C13.8042 16.0006 13.5595 16.1229 13.4095 16.2242C13.2551 16.3285 13.049 16.5229 12.9345 16.6723C12.8232 16.8176 12.6881 17.0493 12.6343 17.1875C12.5681 17.3571 12.5298 17.567 12.5161 17.8347C12.4997 18.1563 12.5133 18.2877 12.5887 18.5335C12.6398 18.7001 12.7654 18.9584 12.8679 19.1075C12.9737 19.2614 13.1696 19.4654 13.3207 19.5792C13.4672 19.6895 13.7011 19.8234 13.8404 19.8768C14.0116 19.9423 14.2233 19.9803 14.4934 19.9939C14.8179 20.0101 14.9504 19.9966 15.1985 19.9219C15.3666 19.8713 15.6272 19.7468 15.7776 19.6452C15.9329 19.5403 16.1388 19.3462 16.2535 19.1964C16.3648 19.0512 16.4999 18.8194 16.5537 18.6813C16.6199 18.5116 16.6582 18.3018 16.6719 18.0341C16.6883 17.7125 16.6747 17.5811 16.5993 17.3352C16.5483 17.1687 16.4226 16.9104 16.3201 16.7612C16.2143 16.6074 16.0184 16.4033 15.8673 16.2896C15.7208 16.1793 15.487 16.0452 15.3476 15.9916C15.1605 15.9195 14.9806 15.8903 14.6593 15.8796C14.3115 15.868 14.1699 15.8826 13.9533 15.9525ZM6.42523 17.2894C6.51393 17.3139 6.6456 17.3924 6.71777 17.4639C6.78998 17.5354 6.86984 17.6706 6.89524 17.7642C6.92791 17.8844 6.92791 17.9844 6.89524 18.1045C6.86984 18.1982 6.78976 18.3335 6.71729 18.4053C6.64486 18.4771 6.50832 18.5565 6.41384 18.5817C6.2926 18.6141 6.19169 18.6141 6.07045 18.5817C5.97597 18.5565 5.83943 18.4771 5.767 18.4053C5.69453 18.3335 5.61445 18.1982 5.58905 18.1045C5.55638 17.9844 5.55638 17.8844 5.58905 17.7642C5.61445 17.6706 5.69479 17.535 5.76757 17.4629C5.8403 17.3908 5.96218 17.3139 6.03835 17.2921C6.11456 17.2702 6.19647 17.2507 6.2204 17.2487C6.24432 17.2467 6.3365 17.265 6.42523 17.2894ZM14.7771 17.2894C14.8658 17.3139 14.9975 17.3924 15.0696 17.4639C15.1418 17.5354 15.2217 17.6706 15.2471 17.7642C15.2798 17.8844 15.2798 17.9844 15.2471 18.1045C15.2217 18.1982 15.1416 18.3335 15.0691 18.4053C14.9967 18.4771 14.8602 18.5565 14.7657 18.5817C14.6445 18.6141 14.5435 18.6141 14.4223 18.5817C14.3278 18.5565 14.1913 18.4771 14.1189 18.4053C14.0464 18.3335 13.9663 18.1982 13.9409 18.1045C13.9082 17.9844 13.9082 17.8844 13.9409 17.7642C13.9663 17.6706 14.0467 17.535 14.1194 17.4629C14.1922 17.3908 14.314 17.3139 14.3902 17.2921C14.4664 17.2702 14.5483 17.2507 14.5723 17.2487C14.5962 17.2467 14.6884 17.265 14.7771 17.2894Z" fill="black"/>
</svg>
