<svg width="64" height="64" viewBox="0 0 64 64" fill="none" xmlns="http://www.w3.org/2000/svg">
<path fill-rule="evenodd" clip-rule="evenodd" d="M28.0236 0.149841C27.3132 0.250067 26.1278 0.455428 25.3894 0.606285C24.6509 0.757141 23.4732 1.05097 22.7721 1.25918C22.0711 1.46751 20.9026 1.87487 20.1754 2.16444C19.4482 2.45402 18.1657 3.04142 17.3252 3.46984C16.4847 3.89826 15.068 4.73559 14.1769 5.33075C13.286 5.92578 12.0556 6.83259 11.4429 7.34574C10.8302 7.85901 9.86139 8.74555 9.29012 9.31578C8.71873 9.88601 7.79228 10.9047 7.23148 11.5795C6.67054 12.2544 5.75275 13.504 5.19195 14.3564C4.63101 15.2089 3.74448 16.7781 3.2219 17.8437C2.6992 18.9092 2.06362 20.3483 1.80943 21.0415C1.55525 21.7348 1.17191 22.9826 0.957381 23.8145C0.74285 24.6464 0.440621 26.0553 0.285632 26.9454C0.0466898 28.3177 0.00329286 29.0646 6.39201e-05 31.8573C-0.00226092 33.9104 0.0589598 35.5643 0.162803 36.2487C0.254375 36.8525 0.420472 37.8115 0.531936 38.3798C0.643399 38.9481 0.936587 40.1105 1.18328 40.9629C1.4301 41.8154 1.89274 43.1499 2.21137 43.9288C2.53001 44.7076 3.11729 45.9833 3.51651 46.7636C3.91574 47.544 4.68604 48.8539 5.22837 49.6745C5.77057 50.495 6.67119 51.7185 7.22967 52.3934C7.78815 53.0682 8.79287 54.1582 9.46229 54.8155C10.1318 55.4728 11.2175 56.4432 11.8751 56.9721C12.5328 57.501 13.7034 58.346 14.4767 58.85C15.25 59.3538 16.5654 60.1146 17.3999 60.5405C18.2343 60.9664 19.5968 61.5775 20.4274 61.8985C21.2581 62.2196 22.5438 62.6524 23.2844 62.8603C24.025 63.0684 25.249 63.3537 26.0044 63.4945C26.7597 63.6353 28.0385 63.8183 28.8462 63.9012C29.7492 63.9938 31.3159 64.0242 32.9146 63.9801C34.3447 63.9406 36.1012 63.8156 36.818 63.7022C37.535 63.5888 38.9037 63.2991 39.8597 63.0583C40.8156 62.8174 42.1761 62.4076 42.883 62.1475C43.5899 61.8874 45.0401 61.2461 46.1056 60.7225C47.1712 60.1989 48.6533 59.3709 49.3992 58.8827C50.145 58.3943 51.2784 57.576 51.9177 57.0642C52.5571 56.5524 53.7102 55.5101 54.4804 54.7478C55.2504 53.9856 56.3061 52.839 56.8262 52.1996C57.3465 51.5603 58.2156 50.373 58.7577 49.5611C59.2997 48.7492 60.1725 47.209 60.6971 46.1384C61.2216 45.0678 61.8643 43.6119 62.1252 42.9031C62.3861 42.1944 62.7958 40.8286 63.0356 39.8679C63.2756 38.9074 63.5641 37.5402 63.677 36.8299C63.7898 36.1195 63.9149 34.3682 63.9551 32.9382C64.0003 31.3318 63.9706 29.7771 63.8776 28.8697C63.7947 28.0621 63.6088 26.7678 63.4644 25.9934C63.32 25.2191 63.0077 23.9114 62.7705 23.0874C62.5332 22.2635 62.0959 20.979 61.7987 20.2331C61.5015 19.4872 60.9176 18.2085 60.5012 17.3916C60.0848 16.5747 59.2873 15.2089 58.729 14.3564C58.1708 13.504 57.2552 12.2544 56.6942 11.5795C56.1334 10.9047 55.207 9.88498 54.6356 9.31371C54.0643 8.74232 53.0446 7.81652 52.3698 7.25636C51.6949 6.6962 50.4453 5.77634 49.5929 5.21218C48.7405 4.64802 47.1712 3.76213 46.1056 3.24356C45.0401 2.72499 43.5953 2.0894 42.8952 1.83109C42.195 1.57277 40.8582 1.16657 39.9245 0.928146C38.9909 0.68985 37.5877 0.394724 36.8063 0.272283C35.8473 0.122072 34.3989 0.0363113 32.3503 0.00854243C30.2297 -0.0201306 28.926 0.0224914 28.0236 0.149841ZM35.5147 2.29141C36.083 2.36128 37.1582 2.53861 37.9041 2.6856C38.65 2.83245 39.8996 3.14604 40.681 3.3824C41.4624 3.61876 42.7403 4.07998 43.5208 4.40714C44.3013 4.73442 45.4347 5.26901 46.0394 5.59526C46.6441 5.92151 47.6923 6.55258 48.3686 6.99779C49.045 7.44286 50.0912 8.20463 50.6934 8.6904C51.2958 9.17629 52.2397 10.0044 52.7912 10.5309C53.3427 11.0572 54.2727 12.0645 54.8578 12.7693C55.4428 13.4741 56.3756 14.7298 56.9303 15.5598C57.4852 16.3897 58.3078 17.8243 58.7583 18.7478C59.2088 19.6713 59.7877 20.9941 60.0446 21.6873C60.3016 22.3806 60.6792 23.6011 60.8837 24.3996C61.0883 25.1982 61.3496 26.4036 61.4644 27.0785C61.5794 27.7533 61.7327 29.1387 61.8053 30.1569C61.8965 31.4373 61.895 32.5727 61.8005 33.8379C61.7253 34.8442 61.5793 36.1957 61.4759 36.8412C61.3725 37.4869 61.1134 38.6923 60.8999 39.5201C60.6865 40.3479 60.3028 41.5923 60.0472 42.2856C59.7916 42.9788 59.2124 44.3033 58.7603 45.2287C58.3079 46.1543 57.4759 47.6073 56.9111 48.4577C56.3464 49.3082 55.4209 50.5561 54.8543 51.231C54.2878 51.9058 53.3349 52.9271 52.7366 53.5005C52.1383 54.0738 51.1862 54.9118 50.6209 55.3627C50.0555 55.8135 49.0407 56.5443 48.3659 56.9865C47.691 57.4289 46.5868 58.0837 45.9119 58.4418C45.237 58.7999 44.0319 59.3592 43.2337 59.6848C42.4355 60.0106 41.0823 60.4784 40.2266 60.7247C39.371 60.971 37.9907 61.2907 37.1591 61.4351C36.3275 61.5795 34.8327 61.7551 33.8373 61.8255C32.6607 61.9087 31.3836 61.91 30.1871 61.8291C29.1749 61.7607 27.78 61.6092 27.0873 61.4923C26.3946 61.3754 25.1746 61.1123 24.376 60.9076C23.5776 60.7029 22.357 60.3264 21.6637 60.0708C20.9705 59.8152 19.6477 59.2359 18.7242 58.7835C17.8007 58.331 16.4349 57.5611 15.689 57.0725C14.9431 56.5839 13.8702 55.8149 13.3049 55.3636C12.7395 54.9123 11.7874 54.0738 11.1891 53.5005C10.5909 52.9271 9.63795 51.9058 9.07146 51.231C8.50484 50.5561 7.5793 49.3082 7.01462 48.4577C6.44981 47.6073 5.61778 46.1543 5.16547 45.2287C4.71329 44.3033 4.13415 42.9788 3.87854 42.2856C3.62294 41.5923 3.24657 40.3718 3.04199 39.5733C2.8374 38.7747 2.57612 37.5693 2.46129 36.8944C2.34634 36.2196 2.19342 34.8393 2.12122 33.827C2.03249 32.5807 2.03249 31.3896 2.12135 30.1379C2.19355 29.1213 2.36662 27.6247 2.50585 26.8121C2.64521 25.9996 2.96462 24.622 3.2157 23.7508C3.46692 22.8797 3.93214 21.5327 4.24974 20.7573C4.56721 19.982 5.0389 18.9269 5.29799 18.4127C5.55695 17.8984 6.09386 16.9521 6.49127 16.3097C6.88869 15.6672 7.6329 14.5853 8.14514 13.9053C8.65738 13.2253 9.61495 12.0999 10.273 11.4046C10.9311 10.7093 12.0266 9.67342 12.7074 9.10267C13.3883 8.53192 14.6411 7.60289 15.4916 7.03821C16.342 6.4734 17.795 5.64137 18.7206 5.18906C19.646 4.73688 20.9705 4.15774 21.6637 3.90213C22.357 3.64653 23.6014 3.2628 24.4292 3.04943C25.257 2.83593 26.4915 2.57039 27.1727 2.45918C27.8537 2.34811 29.0504 2.20965 29.8318 2.15166C30.6132 2.09367 31.979 2.07274 32.867 2.10529C33.7549 2.13771 34.9464 2.2214 35.5147 2.29141ZM30.5708 11.6489C30.1959 11.8385 29.7512 12.1766 29.5826 12.4001C29.4139 12.6236 25.3111 18.8753 20.465 26.2927C15.619 33.7101 11.5738 39.9707 11.4759 40.2053C11.3778 40.4398 11.2989 40.9388 11.3005 41.314C11.3021 41.719 11.4104 42.2323 11.5668 42.5774C11.7117 42.8971 11.9575 43.2971 12.1129 43.4663C12.2682 43.6356 12.6861 43.9111 13.0413 44.0786L13.687 44.383H31.9629H50.2387L50.8845 44.0786C51.2397 43.9111 51.6575 43.6356 51.8129 43.4663C51.9682 43.2971 52.214 42.8971 52.3589 42.5774C52.5208 42.2204 52.6236 41.7194 52.6253 41.2788C52.6273 40.7621 52.5368 40.383 52.3016 39.9227C52.1219 39.5714 47.9809 33.1828 43.0991 25.726C34.777 13.0142 34.1837 12.1441 33.5927 11.7802C33.0948 11.4739 32.7828 11.3831 32.1074 11.3482C31.3837 11.3107 31.1479 11.357 30.5708 11.6489ZM32.6287 13.7565C32.7463 13.8734 36.8099 20.0413 41.659 27.4632C48.0668 37.2707 50.4754 41.0572 50.4754 41.3225C50.4754 41.5262 50.3501 41.8129 50.1921 41.9711L49.9086 42.2545H31.9629H14.0172L13.7337 41.9711C13.5764 41.8137 13.4504 41.5264 13.4506 41.3253C13.4508 41.0637 15.9292 37.1723 22.3599 27.3368C28.0983 18.5601 31.381 13.6542 31.5837 13.552C31.7567 13.4647 32.0145 13.4273 32.1566 13.4686C32.2987 13.51 32.5111 13.6395 32.6287 13.7565ZM30.8004 20.8897C30.4808 21.0347 30.083 21.2804 29.9164 21.4358C29.7497 21.5912 29.5226 21.8928 29.4115 22.1059C29.3004 22.319 29.1632 22.6968 29.1067 22.9454C29.0386 23.2442 29.1555 24.7526 29.4514 27.3945C29.8515 30.9673 29.9288 31.4231 30.1785 31.689C30.4392 31.9666 30.5589 31.9865 31.9629 31.9865C33.3668 31.9865 33.4865 31.9666 33.7472 31.689C33.997 31.4231 34.0742 30.9673 34.4743 27.3945C34.7702 24.7526 34.8871 23.2442 34.8191 22.9454C34.7625 22.6968 34.6253 22.319 34.5142 22.1059C34.4032 21.8928 34.176 21.5912 34.0094 21.4358C33.8428 21.2804 33.4449 21.0347 33.1253 20.8897C32.8056 20.7448 32.2825 20.6263 31.9629 20.6263C31.6432 20.6263 31.1201 20.7448 30.8004 20.8897ZM32.2726 22.8337C32.4497 22.9144 32.6294 23.0717 32.6723 23.1834C32.7152 23.2952 32.5897 24.8557 32.3933 26.6512C32.197 28.4469 31.9993 29.8733 31.954 29.8211C31.9086 29.7689 31.7138 28.3022 31.5211 26.5618C31.3284 24.8214 31.207 23.3032 31.2515 23.1878C31.2959 23.0725 31.4595 22.9166 31.6152 22.8413C31.7709 22.7661 31.91 22.7007 31.9245 22.6959C31.939 22.691 32.0955 22.7531 32.2726 22.8337ZM30.6014 33.3185C30.2434 33.4891 29.7986 33.809 29.6131 34.0295C29.4276 34.2498 29.1758 34.692 29.0536 35.0121C28.9001 35.4139 28.8486 35.832 28.8871 36.3633C28.9277 36.9242 29.0466 37.3009 29.3261 37.7528C29.5591 38.1298 29.9539 38.5242 30.3332 38.7586C30.8044 39.05 31.1532 39.1566 31.7596 39.1953C32.3848 39.2352 32.7103 39.1827 33.2322 38.9583C33.6006 38.7998 34.0689 38.4801 34.2727 38.2479C34.4767 38.0157 34.7449 37.56 34.8689 37.2354C35.0256 36.8251 35.0774 36.4104 35.0386 35.8757C34.9981 35.3148 34.8791 34.9381 34.5996 34.4862C34.3658 34.108 33.9716 33.7148 33.5893 33.4785C33.0911 33.1703 32.7869 33.0824 32.1074 33.0495C31.415 33.0161 31.1288 33.0672 30.6014 33.3185ZM32.6625 35.48C32.8025 35.6144 32.91 35.8923 32.91 36.1195C32.91 36.3561 32.798 36.6334 32.6373 36.794C32.4768 36.9546 32.1995 37.0666 31.9629 37.0666C31.7262 37.0666 31.4489 36.9546 31.2884 36.794C31.132 36.6377 31.0157 36.3559 31.0157 36.1336C31.0157 35.9203 31.0961 35.649 31.1942 35.5307C31.2924 35.4125 31.4909 35.2682 31.6354 35.2104C31.78 35.1524 32.0145 35.136 32.1566 35.1737C32.2987 35.2115 32.5264 35.3493 32.6625 35.48Z" fill="#CE0005"/>
</svg>
