<svg width="36" height="22" viewBox="0 0 36 22" fill="none" xmlns="http://www.w3.org/2000/svg">
<path d="M22.5985 2.35254H12.9983V19.6494H22.5985V2.35254Z" fill="#FF5F00"/>
<path d="M13.6093 11.0003C13.6078 9.33602 13.9841 7.6931 14.7097 6.19532C15.4353 4.69749 16.4914 3.38389 17.7983 2.35341C16.4192 1.26911 14.8008 0.530389 13.0781 0.198894C11.3554 -0.132598 9.57841 -0.0472443 7.89542 0.447832C6.21244 0.942906 4.67226 1.83335 3.40347 3.04483C2.13467 4.25632 1.17404 5.75368 0.601756 7.41201C0.029465 9.07034 -0.137881 10.8415 0.113683 12.5777C0.365246 14.3138 1.02842 15.9647 2.04786 17.3923C3.0673 18.82 4.41345 19.9832 5.97393 20.7847C7.53441 21.5862 9.26396 22.0029 11.0183 21.9999C13.479 22.0031 15.8684 21.174 17.7983 19.6472C16.4914 18.6168 15.4353 17.3031 14.7097 15.8053C13.9841 14.3076 13.6078 12.6646 13.6093 11.0003Z" fill="#EB001B"/>
<path d="M34.4992 17.8162V17.4618H34.6429V17.3884H34.2701V17.4618H34.4137V17.8162H34.4992ZM35.205 17.8162V17.3884H35.095L34.9667 17.6939L34.8384 17.3884H34.7254V17.8162H34.8048V17.4923L34.924 17.7703H35.0065L35.1256 17.4923V17.8162H35.205Z" fill="#F79E1B"/>
<path d="M35.5473 10.9998C35.5542 13.0612 34.9798 15.0828 33.89 16.8326C32.8002 18.5823 31.239 19.9893 29.3858 20.8922C27.5326 21.795 25.4624 22.157 23.4128 21.9368C21.3632 21.7165 19.4172 20.9228 17.7982 19.6467C19.1042 18.6154 20.1596 17.3016 20.8853 15.804C21.6109 14.3064 21.9879 12.6639 21.9879 10.9998C21.9879 9.33564 21.6109 7.69317 20.8853 6.19557C20.1596 4.69798 19.1042 3.3842 17.7982 2.35287C19.4172 1.07682 21.3632 0.283098 23.4128 0.0627917C25.4624 -0.157514 27.5326 0.204524 29.3858 1.10736C31.239 2.01019 32.8002 3.41723 33.89 5.16702C34.9798 6.91678 35.5542 8.93837 35.5473 10.9998Z" fill="#F79E1B"/>
</svg>
