<svg width="81" height="22" viewBox="0 0 81 22" fill="none" xmlns="http://www.w3.org/2000/svg">
<path fill-rule="evenodd" clip-rule="evenodd" d="M7.45821 0.00375419C8.17875 -0.000556355 10.3202 -0.193423 11.2272 2.8679C11.8382 4.93004 12.8115 8.30793 14.1471 13.0016H14.691C16.1233 8.0532 17.1072 4.67532 17.6428 2.8679C18.5593 -0.225312 20.8505 0.00381481 21.7671 0.00381481L28.8381 0.00382363V22H21.6311V9.03727H21.1478L17.1303 22H11.7079L7.69032 9.02766H7.20703V22H0V0.00382363L7.45821 0.00375419ZM39.1873 0.00382363V12.9762H39.7622L44.6492 2.3091C45.5979 0.186324 47.6198 0.00382363 47.6198 0.00382363H54.594V22H47.2365V9.02766H46.6615L41.8703 19.6947C40.9217 21.8079 38.804 22 38.804 22H31.8297V0.00382363H39.1873ZM80.025 10.4566C78.9987 13.3648 75.7757 15.4477 72.2074 15.4477H64.4916V22H57.495V10.4566H80.025Z" fill="#0F754E"/>
<path fill-rule="evenodd" clip-rule="evenodd" d="M72.5448 0.00341797H57.128C57.4949 4.90051 61.7122 9.09275 66.0779 9.09275H80.5111C81.344 5.02268 78.4767 0.00341797 72.5448 0.00341797Z" fill="url(#paint0_linear_1_508)"/>
<defs>
<linearGradient id="paint0_linear_1_508" x1="2409.59" y1="571.761" x2="57.128" y2="571.761" gradientUnits="userSpaceOnUse">
<stop stop-color="#1F5CD7"/>
<stop offset="1" stop-color="#02AEFF"/>
</linearGradient>
</defs>
</svg>
