<svg width="64" height="58" viewBox="0 0 64 58" fill="none" xmlns="http://www.w3.org/2000/svg">
<path fill-rule="evenodd" clip-rule="evenodd" d="M17.0005 9.03207L0 18.064L0.032903 30.1341L0.0658061 42.2043L15.356 48.8286C23.7657 52.4721 30.9749 55.5945 31.3767 55.7675L32.1072 56.0821L34.6355 54.482C36.0261 53.6019 37.2803 52.8196 37.4225 52.7434C37.6501 52.6216 37.8122 52.7427 38.7746 53.7541C39.376 54.3861 40.29 55.1939 40.8056 55.5491C41.3212 55.9043 42.0333 56.3404 42.3881 56.5184C42.743 56.6962 43.4679 56.9976 43.999 57.1883C44.5302 57.379 45.3431 57.6144 45.8054 57.7115C46.2679 57.8086 47.1397 57.9262 47.7429 57.9731C48.3462 58.0198 49.3273 57.9954 49.9233 57.9186C50.5194 57.842 51.3904 57.6831 51.8588 57.5657C52.3273 57.4483 53.1108 57.1895 53.5999 56.9905C54.0891 56.7915 54.9541 56.35 55.5221 56.0092C56.0902 55.6686 57.0155 54.9585 57.5784 54.4314C58.1412 53.9043 58.8537 53.1455 59.1618 52.7451C59.47 52.3446 59.9092 51.7018 60.1378 51.3163C60.3666 50.9309 60.7217 50.2105 60.9271 49.7154C61.1325 49.2205 61.4269 48.3495 61.5812 47.78C61.8164 46.9124 61.8627 46.3893 61.8669 44.5511C61.8712 42.6484 61.8323 42.2121 61.5727 41.2608C61.4081 40.6576 61.0783 39.7132 60.8399 39.1622L60.4061 38.1604L61.0745 37.7365C61.4421 37.5035 62.2498 36.9963 62.8693 36.6095L63.9959 35.906L63.9979 23.8415L64 11.7771L62.9359 11.3628C62.3507 11.1348 57.8945 9.38446 53.0332 7.47312C48.172 5.56164 42.1914 3.21276 39.743 2.25341C37.2946 1.29393 35.0011 0.39445 34.6462 0.25445L34.0011 0L17.0005 9.03207ZM38.2834 3.99843C40.4968 4.8672 42.2968 5.58758 42.2834 5.59919C42.2701 5.61081 36.0462 9.46807 28.4527 14.1709C20.8592 18.8737 14.5302 22.7435 14.3883 22.7703C14.2464 22.7973 11.7592 21.8685 8.86111 20.7065L3.59198 18.5937L18.7965 10.5121C27.1591 6.06732 34.0592 2.42799 34.1301 2.42476C34.2011 2.42153 36.0701 3.12979 38.2834 3.99843ZM46.81 7.35815C47.1841 7.50292 47.4744 7.63492 47.4552 7.65157C47.4361 7.66821 41.2075 11.5295 33.614 16.2322C26.0205 20.9348 19.717 24.8069 19.6063 24.8369C19.4956 24.8667 18.834 24.6637 18.136 24.3858L16.867 23.8804L19.3696 22.325C20.7459 21.4695 27.0333 17.5745 33.3413 13.6693L44.8104 6.56899L45.4703 6.83196C45.8331 6.97673 46.4361 7.2135 46.81 7.35815ZM55.3879 10.7183C58.1377 11.7973 60.3878 12.7154 60.3879 12.7582C60.3879 12.8012 53.9807 16.6802 46.1497 21.3782L31.9112 29.9201L26.9876 27.9527C24.2796 26.8705 22.1079 25.9415 22.1615 25.888C22.2152 25.8346 28.5011 21.9259 36.1301 17.2022C44.457 12.0464 50.0784 8.64214 50.1945 8.68498C50.301 8.72408 52.638 9.63904 55.3879 10.7183ZM61.9364 24.5213V34.6203L60.5653 35.484L59.1942 36.3478L58.636 35.6753C58.3291 35.3053 57.7993 34.7659 57.4588 34.4763C57.1182 34.1866 56.5493 33.7433 56.1945 33.4909C55.8397 33.2386 55.0848 32.8015 54.5171 32.5195C53.9494 32.2376 53.1074 31.8874 52.6461 31.7414C52.1848 31.5953 51.4881 31.399 51.0978 31.3052C50.6809 31.2051 49.6429 31.1358 48.5816 31.1372C47.5881 31.1385 46.4268 31.2141 46.001 31.3052C45.5752 31.3965 44.8494 31.5915 44.3881 31.739C43.9268 31.8864 43.0559 32.2537 42.4526 32.5553C41.8494 32.8567 41.0063 33.3611 40.5791 33.6762C40.1519 33.9911 39.4051 34.6501 38.9195 35.1404C38.4338 35.6309 37.6978 36.5462 37.2839 37.1745C36.87 37.8029 36.3505 38.7514 36.1295 39.2823C35.9084 39.8133 35.6039 40.6934 35.4527 41.2382C35.2219 42.0699 35.1771 42.5899 35.1726 44.4866C35.1683 46.2826 35.2159 46.9294 35.4053 47.6478C35.5364 48.1446 35.8428 49.0371 36.0862 49.6312C36.3297 50.2254 36.5118 50.725 36.4907 50.7415C36.4698 50.758 35.7559 51.2068 34.9043 51.7387C34.0527 52.2705 33.2834 52.7469 33.1946 52.7972C33.0661 52.8703 33.0334 50.7379 33.0334 42.3197V31.7506L47.4526 23.0919C55.3832 18.3296 61.8865 14.4308 61.9041 14.4277C61.9218 14.4247 61.9364 18.9669 61.9364 24.5213ZM7.93673 22.6537L13.356 24.8231L13.4206 28.2784C13.4799 31.4575 13.5043 31.7477 13.7255 31.9092C13.8577 32.0057 15.2175 32.5855 16.7471 33.1975C18.6652 33.9648 19.6228 34.2865 19.8325 34.2339C19.9999 34.1918 20.2514 34.0429 20.3915 33.9028C20.6305 33.6638 20.6463 33.4632 20.6463 30.6922V27.7366L25.8076 29.8025L30.9688 31.8686V42.5001C30.9688 48.3475 30.9252 53.1322 30.8721 53.133C30.8189 53.1336 24.3157 50.3365 16.4205 46.9169L2.06579 40.6996V30.5199C2.06579 20.8836 2.07779 20.3441 2.2916 20.4123C2.41573 20.4519 4.9561 21.4605 7.93673 22.6537ZM17.1036 26.3453L18.5173 26.9135L18.5525 29.2634C18.5804 31.1254 18.5537 31.5996 18.4235 31.5472C18.3332 31.5108 17.635 31.2331 16.8722 30.9301L15.4851 30.3793V28.0782C15.4851 26.8125 15.5311 25.777 15.5875 25.777C15.6439 25.777 16.3261 26.0327 17.1036 26.3453ZM50.6025 33.446C51.1233 33.5478 51.8939 33.7515 52.315 33.8988C52.7362 34.046 53.458 34.3739 53.9189 34.6271C54.3799 34.8806 55.0874 35.3421 55.4913 35.6528C55.895 35.9635 56.5008 36.524 56.8373 36.8984C57.174 37.2728 57.6154 37.8204 57.8184 38.1154C58.0213 38.4105 58.3862 39.0501 58.6293 39.5369C58.8724 40.0238 59.1936 40.8208 59.343 41.308C59.4924 41.7954 59.6732 42.7098 59.7445 43.3403C59.8331 44.1217 59.8315 44.8664 59.7396 45.6801C59.6654 46.3365 59.4856 47.2801 59.34 47.7769C59.1945 48.2736 58.8195 49.1649 58.5069 49.7574C58.1942 50.3499 57.6495 51.1976 57.2964 51.6412C56.9434 52.085 56.3479 52.7096 55.973 53.0295C55.598 53.3494 54.9508 53.8286 54.5346 54.0944C54.1184 54.3603 53.3877 54.7388 52.9108 54.9354C52.4339 55.1321 51.6509 55.3914 51.1709 55.5118C50.6909 55.6322 49.7904 55.7637 49.1698 55.8038C48.5313 55.8452 47.573 55.8084 46.9627 55.7192C46.3695 55.6324 45.4002 55.3989 44.8089 55.2002C44.2174 55.0015 43.2622 54.5563 42.6859 54.211C42.1097 53.8657 41.2212 53.1768 40.7114 52.6801C40.2017 52.1833 39.5385 51.4105 39.2377 50.9628C38.9369 50.5151 38.4938 49.7312 38.2532 49.2209C38.0125 48.7105 37.727 47.9478 37.6185 47.5259C37.5101 47.104 37.3607 46.2699 37.2865 45.6725C37.1932 44.9219 37.1926 44.2177 37.2844 43.3935C37.3576 42.7375 37.5402 41.8005 37.6902 41.3115C37.8402 40.8223 38.1618 40.0238 38.4049 39.5369C38.648 39.0501 39.0315 38.3824 39.2573 38.0531C39.4831 37.7238 39.9315 37.1711 40.2537 36.8249C40.576 36.4786 41.1632 35.9462 41.5585 35.6417C41.9538 35.3371 42.6543 34.8806 43.1154 34.6271C43.5763 34.3739 44.2981 34.0456 44.7192 33.8979C45.1404 33.7501 45.8623 33.5518 46.3236 33.4572C46.7849 33.3625 47.7233 33.2797 48.409 33.273C49.0947 33.2663 50.0818 33.3442 50.6025 33.446ZM3.12463 35.2588L3.16256 36.2564L5.67868 37.2617L8.19479 38.267L8.23311 37.3571C8.25414 36.8566 8.22511 36.4025 8.1686 36.3479C8.11208 36.2935 7.0206 35.8314 5.74319 35.3211C4.46578 34.8109 3.34553 34.3637 3.25366 34.3273C3.12385 34.2758 3.09508 34.4832 3.12463 35.2588ZM3.09805 38.4587V39.4261L5.67868 40.4612L8.25931 41.4963L8.25801 40.5076L8.25673 39.5189L5.90319 38.5879C4.60875 38.0759 3.44798 37.6196 3.32385 37.5741C3.12153 37.4999 3.09805 37.5918 3.09805 38.4587ZM50.4558 43.5797L46.3158 48.2289L43.7432 46.1642C42.3283 45.0286 41.1481 44.0995 41.1209 44.0995C41.0937 44.0995 40.8016 44.443 40.4718 44.8628C40.1418 45.2826 39.875 45.6746 39.8786 45.7338C39.8822 45.7929 41.3432 47.0027 43.1254 48.422C44.9076 49.8414 46.4346 51.0197 46.5187 51.0406C46.6029 51.0615 48.6983 48.8 51.175 46.0149C53.6519 43.2299 55.7874 40.8136 55.9207 40.6453C56.1621 40.3405 56.1613 40.3377 55.7271 39.8857C55.4874 39.6361 55.1348 39.3191 54.9434 39.1813L54.5957 38.9306L50.4558 43.5797Z" fill="#CE0005"/>
</svg>
