<svg width="12" height="12" viewBox="0 0 12 12" fill="none" xmlns="http://www.w3.org/2000/svg">
<path fill-rule="evenodd" clip-rule="evenodd" d="M2.009 0.0440333C1.93535 0.0675489 1.82442 0.116104 1.76248 0.151952C1.69872 0.188855 1.37641 0.487759 1.01994 0.840611C0.613715 1.2427 0.350735 1.52256 0.279361 1.62877C0.217683 1.72056 0.140956 1.87725 0.106044 1.98273C0.0716016 2.08682 0.0311955 2.2712 0.0162633 2.39246C0.00102595 2.51618 -0.00442101 2.70669 0.00386682 2.82664C0.0119668 2.94417 0.0388494 3.15035 0.063572 3.28481C0.0883181 3.41927 0.135345 3.62444 0.168097 3.74073C0.200826 3.85701 0.269312 4.06758 0.320283 4.20862C0.371231 4.34969 0.46714 4.58588 0.533396 4.73352C0.599628 4.88113 0.707956 5.10269 0.774071 5.22587C0.840186 5.34903 0.952764 5.55002 1.02426 5.67253C1.09572 5.79503 1.24002 6.02714 1.34492 6.18832C1.44982 6.34951 1.62927 6.60799 1.74365 6.76273C1.85806 6.91747 2.03633 7.14958 2.13983 7.27853C2.24332 7.40748 2.46683 7.67124 2.63651 7.86466C2.80621 8.05809 3.13434 8.40526 3.36569 8.63615C3.59705 8.86704 3.94483 9.19448 4.13853 9.36378C4.33222 9.53308 4.57748 9.74242 4.68351 9.82898C4.78956 9.91554 5.00086 10.0794 5.15307 10.1932C5.30531 10.307 5.57246 10.495 5.74679 10.611C5.92112 10.727 6.17996 10.891 6.32201 10.9753C6.46405 11.0597 6.6912 11.1874 6.82679 11.259C6.96238 11.3306 7.18425 11.4388 7.31983 11.4994C7.45542 11.56 7.67729 11.6499 7.81288 11.6993C7.94846 11.7486 8.15467 11.8155 8.27115 11.8478C8.3876 11.8802 8.60947 11.9294 8.76419 11.9572C8.99738 11.9991 9.10371 12.0058 9.38592 11.9961C9.59443 11.989 9.78094 11.9695 9.86722 11.9458C9.9447 11.9246 10.0752 11.876 10.1572 11.8378C10.2393 11.7997 10.3713 11.7167 10.4507 11.6533C10.5301 11.5899 10.8597 11.2707 11.1832 10.9439C11.6849 10.4371 11.7836 10.3258 11.8553 10.1857C11.9015 10.0955 11.9534 9.9636 11.9706 9.89268C11.9878 9.82176 12.001 9.67933 11.9999 9.57617C11.9989 9.47301 11.9819 9.33487 11.9622 9.2692C11.9424 9.20355 11.9029 9.10332 11.8744 9.04647C11.8394 8.97688 11.5071 8.62696 10.8566 7.97469C9.92493 7.04054 9.88387 7.00284 9.69759 6.91025C9.51984 6.82188 9.48598 6.81337 9.27153 6.80306C9.07918 6.79382 9.01008 6.80053 8.87487 6.84153C8.78483 6.86882 8.64574 6.9348 8.5658 6.98811C8.48586 7.0414 8.37943 7.13929 8.32928 7.20561C8.27913 7.27196 8.1987 7.42021 8.15054 7.53507C8.10239 7.64995 8.01963 7.79747 7.96661 7.8629C7.91362 7.92834 7.80391 8.02648 7.72284 8.08099C7.64177 8.1355 7.50625 8.20145 7.42168 8.22752C7.31976 8.25896 7.20232 8.27495 7.07331 8.27495C6.94303 8.27495 6.8255 8.25878 6.71773 8.226C6.62922 8.19909 6.44057 8.12085 6.29853 8.05211C6.15649 7.98339 5.94779 7.86487 5.83476 7.78875C5.72176 7.71262 5.54215 7.58287 5.43563 7.50041C5.32913 7.41796 5.09914 7.20768 4.92451 7.03315C4.7499 6.85862 4.53731 6.626 4.45211 6.51618C4.3669 6.40639 4.23855 6.22576 4.16687 6.11482C4.09519 6.00388 3.99813 5.83692 3.95117 5.74382C3.90424 5.6507 3.82941 5.46588 3.78492 5.33311C3.74041 5.20031 3.6974 5.02851 3.68932 4.95128C3.6804 4.86598 3.68643 4.76139 3.7047 4.68487C3.72125 4.61556 3.75424 4.51332 3.77802 4.45766C3.8018 4.40198 3.8675 4.29647 3.92403 4.22321C3.98054 4.14992 4.08361 4.05147 4.15309 4.00439C4.22256 3.95734 4.36991 3.88041 4.48054 3.83348C4.59114 3.78654 4.73377 3.70546 4.79749 3.65332C4.86119 3.60118 4.95212 3.50151 4.99955 3.43183C5.04697 3.36218 5.10952 3.24437 5.13854 3.17007C5.18092 3.06156 5.1912 2.98872 5.19075 2.80047C5.19036 2.62016 5.17857 2.53397 5.13971 2.42725C5.11191 2.35091 5.05801 2.24013 5.0199 2.18107C4.9818 2.12199 4.53019 1.65543 4.01632 1.14423C3.23199 0.363968 3.0594 0.203579 2.94114 0.144965C2.86366 0.106562 2.74054 0.0579598 2.66752 0.0369528C2.58969 0.0145625 2.45371 -0.00072381 2.33883 2.644e-05C2.21709 0.000800135 2.09216 0.0174697 2.009 0.0440333Z" fill="white"/>
</svg>
