<svg width="20" height="20" viewBox="0 0 20 20" fill="none" xmlns="http://www.w3.org/2000/svg">
<path fill-rule="evenodd" clip-rule="evenodd" d="M9.76277 0.050072C9.9883 0.0846035 10.3408 0.152817 10.5462 0.201662C10.7515 0.250551 11.0792 0.34511 11.2745 0.411892C11.4697 0.478629 11.8203 0.61671 12.0536 0.718739C12.2868 0.820768 12.6685 1.01718 12.9018 1.15521C13.135 1.29325 13.4921 1.53063 13.6953 1.68271C13.8985 1.83484 14.2384 2.12357 14.4507 2.32441C14.6629 2.52524 14.9801 2.86202 15.1557 3.07278C15.3312 3.28359 15.5859 3.62578 15.7219 3.83319C15.8578 4.04065 16.0512 4.36132 16.1517 4.54583C16.2522 4.73034 16.4274 5.11278 16.541 5.3957C16.6546 5.67861 16.805 6.13284 16.8753 6.40511C16.9456 6.67743 17.0346 7.12598 17.073 7.40192C17.1114 7.67786 17.1429 8.2042 17.1429 8.57152C17.1429 8.93884 17.1118 9.46262 17.0738 9.73552C17.0358 10.0084 16.9562 10.4231 16.897 10.657C16.8378 10.891 16.7254 11.2572 16.6473 11.4708C16.5692 11.6844 16.4312 12.0202 16.3408 12.217C16.2504 12.4138 16.0601 12.7661 15.9179 12.9998C15.7758 13.2335 15.5389 13.5833 15.3914 13.7771L15.1233 14.1295L17.5124 16.528C18.8263 17.8472 19.9236 18.9705 19.9507 19.0242C19.9778 19.0779 20 19.2047 20 19.306C20 19.4072 19.9717 19.5444 19.937 19.6108C19.9024 19.6773 19.8107 19.792 19.7332 19.8658C19.6045 19.9884 19.5657 20 19.2829 20H18.9735L16.5461 17.5681L14.1186 15.1362L13.7669 15.4048C13.5734 15.5526 13.2243 15.7899 12.9911 15.9324C12.7578 16.0748 12.4062 16.2655 12.2098 16.356C12.0134 16.4467 11.6783 16.5848 11.4651 16.6631C11.2519 16.7414 10.8856 16.8542 10.6512 16.9138C10.4167 16.9734 9.98844 17.0553 9.69946 17.0959C9.2937 17.1528 8.97598 17.1641 8.30357 17.1454C7.6079 17.1262 7.3254 17.0985 6.89732 17.0075C6.60268 16.9449 6.20089 16.8412 6.00446 16.777C5.80803 16.7129 5.43558 16.5713 5.17674 16.4625C4.91795 16.3536 4.49187 16.1356 4.22996 15.978C3.96803 15.8203 3.59955 15.5751 3.41116 15.4331C3.22272 15.291 2.89705 15.0124 2.68741 14.8141C2.47781 14.6158 2.16272 14.281 1.98719 14.0702C1.8117 13.8594 1.54969 13.5072 1.405 13.2875C1.26031 13.0677 1.03969 12.6867 0.914732 12.4406C0.789776 12.1946 0.612276 11.7879 0.520224 11.5367C0.428215 11.2855 0.304598 10.8891 0.245535 10.6558C0.186472 10.4225 0.107054 10.0084 0.0690613 9.73552C0.0310707 9.46262 0 8.93884 0 8.57152C0 8.2042 0.0310707 7.68041 0.0690613 7.40751C0.107054 7.13466 0.186605 6.71997 0.245848 6.48599C0.305088 6.252 0.416607 5.8858 0.49366 5.67222C0.570759 5.45863 0.742588 5.05964 0.87549 4.78562C1.00844 4.51156 1.2483 4.09088 1.40853 3.85077C1.56875 3.61066 1.82884 3.25926 1.98647 3.06988C2.14411 2.88053 2.4529 2.55414 2.67263 2.34463C2.89237 2.13511 3.23973 1.83828 3.44455 1.68495C3.64937 1.53161 4.00781 1.29325 4.24107 1.15521C4.47433 1.01718 4.86607 0.815579 5.11161 0.707288C5.35714 0.598952 5.73737 0.451567 5.95656 0.379776C6.1758 0.30794 6.59768 0.19777 6.89406 0.134925C7.35268 0.0376818 7.57612 0.0181347 8.39286 0.0040001C9.0683 -0.00771913 9.4742 0.0059236 9.76277 0.050072ZM7.41071 1.53501C7.17745 1.57268 6.81585 1.65279 6.60714 1.71304C6.39844 1.77334 6.02679 1.90797 5.78125 2.01224C5.53571 2.11655 5.19174 2.28581 5.01687 2.38842C4.84196 2.49103 4.53058 2.69889 4.32491 2.85034C4.1192 3.0018 3.75 3.33007 3.50446 3.57984C3.25893 3.82961 2.92295 4.22462 2.75781 4.45766C2.59272 4.69066 2.34808 5.10271 2.2142 5.37333C2.08036 5.64395 1.91098 6.03761 1.8379 6.24811C1.76482 6.45861 1.66263 6.82683 1.61085 7.0664C1.55906 7.30597 1.49705 7.74263 1.47304 8.03677C1.44469 8.38477 1.44469 8.75826 1.47304 9.10626C1.49705 9.40041 1.55906 9.83706 1.61085 10.0766C1.66263 10.3162 1.76482 10.6844 1.8379 10.8949C1.91098 11.1054 2.08036 11.4991 2.2142 11.7697C2.34808 12.0403 2.59272 12.453 2.75781 12.6867C2.92295 12.9204 3.27902 13.333 3.54911 13.6036C3.8192 13.8742 4.23103 14.231 4.46428 14.3965C4.69754 14.5619 5.10938 14.807 5.37946 14.9411C5.64955 15.0752 6.04246 15.2449 6.25254 15.3182C6.46263 15.3914 6.83223 15.4942 7.07388 15.5467C7.31553 15.5991 7.75134 15.6602 8.04232 15.6823C8.35571 15.7061 8.78714 15.7061 9.10054 15.6823C9.39152 15.6602 9.82732 15.5991 10.069 15.5467C10.3106 15.4942 10.6802 15.3914 10.8903 15.3182C11.1004 15.2449 11.4933 15.0752 11.7634 14.9411C12.0335 14.807 12.4453 14.5619 12.6786 14.3965C12.9118 14.231 13.3237 13.8742 13.5938 13.6036C13.8638 13.333 14.2199 12.9204 14.385 12.6867C14.5501 12.453 14.7948 12.0403 14.9287 11.7697C15.0625 11.4991 15.2319 11.1054 15.305 10.8949C15.378 10.6844 15.4802 10.3162 15.532 10.0766C15.5838 9.83706 15.6458 9.40041 15.6698 9.10626C15.6982 8.75826 15.6982 8.38477 15.6698 8.03677C15.6458 7.74263 15.5838 7.30597 15.532 7.0664C15.4802 6.82683 15.378 6.45861 15.305 6.24811C15.2319 6.03761 15.0625 5.64395 14.9287 5.37333C14.7948 5.10271 14.5501 4.69008 14.385 4.45637C14.2199 4.22265 13.8638 3.81002 13.5938 3.53941C13.3237 3.26879 12.9118 2.91202 12.6786 2.74657C12.4453 2.58116 12.0335 2.33604 11.7634 2.20189C11.4933 2.06779 11.1004 1.89809 10.8903 1.82486C10.6802 1.75164 10.3086 1.64809 10.0644 1.59473C9.82027 1.54141 9.41964 1.48165 9.17411 1.46197C8.92857 1.44233 8.52679 1.43531 8.28125 1.4464C8.03571 1.45745 7.64397 1.49735 7.41071 1.53501Z" fill="black"/>
</svg>
