<svg width="30" height="30" viewBox="0 0 30 30" fill="none" xmlns="http://www.w3.org/2000/svg">
<path fill-rule="evenodd" clip-rule="evenodd" d="M14.6442 0.075108C14.9825 0.126905 15.5113 0.229225 15.8192 0.302492C16.1272 0.375827 16.6188 0.517665 16.9117 0.617838C17.2045 0.717943 17.7305 0.925065 18.0804 1.07811C18.4302 1.23115 19.0028 1.52577 19.3527 1.73282C19.7026 1.93987 20.2382 2.29595 20.543 2.52407C20.8478 2.75226 21.3577 3.18536 21.676 3.48661C21.9944 3.78787 22.4702 4.29302 22.7335 4.60917C22.9967 4.92539 23.3789 5.43867 23.5828 5.74979C23.7867 6.06097 24.0768 6.54198 24.2275 6.81874C24.3783 7.09551 24.641 7.66917 24.8115 8.09354C24.9818 8.51792 25.2075 9.19927 25.313 9.60767C25.4184 10.0161 25.5519 10.689 25.6096 11.1029C25.6671 11.5168 25.7143 12.3063 25.7143 12.8573C25.7143 13.4083 25.6677 14.1939 25.6107 14.6033C25.5537 15.0126 25.4344 15.6346 25.3455 15.9856C25.2567 16.3365 25.0881 16.8858 24.9709 17.2062C24.8537 17.5266 24.6469 18.0303 24.5112 18.3255C24.3756 18.6207 24.0901 19.1491 23.8769 19.4997C23.6637 19.8502 23.3083 20.3749 23.0871 20.6656L22.685 21.1942L26.2685 24.792C28.2395 26.7707 29.8854 28.4557 29.9261 28.5363C29.9667 28.6169 30 28.8071 30 28.959C30 29.1108 29.9575 29.3166 29.9055 29.4163C29.8535 29.5159 29.716 29.688 29.5998 29.7987C29.4068 29.9826 29.3485 30 28.9244 30H28.4603L24.8191 26.3522L21.1779 22.7043L20.6503 23.1072C20.3602 23.3288 19.8365 23.6849 19.4866 23.8985C19.1367 24.1122 18.6094 24.3982 18.3147 24.5341C18.0201 24.67 17.5174 24.8772 17.1976 24.9947C16.8779 25.1121 16.3284 25.2813 15.9767 25.3707C15.625 25.4601 14.9827 25.5829 14.5492 25.6438C13.9406 25.7292 13.464 25.7461 12.4554 25.7181C11.4119 25.6893 10.9881 25.6477 10.346 25.5112C9.90402 25.4174 9.30134 25.2618 9.0067 25.1656C8.71205 25.0693 8.15337 24.857 7.76511 24.6937C7.37692 24.5304 6.73781 24.2034 6.34493 23.967C5.95205 23.7305 5.39933 23.3627 5.11674 23.1496C4.83409 22.9365 4.34558 22.5187 4.03112 22.2212C3.71672 21.9237 3.24409 21.4215 2.98078 21.1054C2.71755 20.7892 2.32453 20.2608 2.1075 19.9312C1.89047 19.6016 1.55953 19.03 1.3721 18.661C1.18467 18.292 0.918417 17.6818 0.780336 17.3051C0.642323 16.9283 0.456898 16.3337 0.368305 15.9838C0.279711 15.6338 0.160582 15.0126 0.103594 14.6033C0.046608 14.1939 0 13.4083 0 12.8573C0 12.3063 0.046608 11.5206 0.103594 11.1113C0.160582 10.702 0.279911 10.08 0.368773 9.72898C0.457634 9.37801 0.624912 8.8287 0.740494 8.50832C0.85614 8.18795 1.11388 7.58946 1.31324 7.17844C1.51266 6.76735 1.87246 6.13632 2.11279 5.77615C2.35312 5.41599 2.74326 4.88889 2.97971 4.60481C3.21616 4.3208 3.67935 3.83121 4.00895 3.51694C4.33855 3.20267 4.8596 2.75742 5.16683 2.52742C5.47406 2.29742 6.01172 1.93987 6.36161 1.73282C6.7115 1.52577 7.29911 1.22337 7.66741 1.06093C8.03572 0.898428 8.60605 0.677351 8.93484 0.569664C9.26371 0.46191 9.89652 0.296655 10.3411 0.202387C11.029 0.0565227 11.3642 0.0272021 12.5893 0.00600015C13.6025 -0.0115787 14.2113 0.0088854 14.6442 0.075108ZM11.1161 2.30252C10.7662 2.35902 10.2238 2.47918 9.91072 2.56956C9.59766 2.66 9.04018 2.86196 8.67188 3.01836C8.30357 3.17482 7.78761 3.42871 7.52531 3.58262C7.26295 3.73654 6.79587 4.04833 6.48737 4.27551C6.17879 4.5027 5.625 4.9951 5.2567 5.36976C4.88839 5.74442 4.38442 6.33693 4.13672 6.6865C3.88909 7.03599 3.52212 7.65407 3.32129 8.06C3.12054 8.46592 2.86647 9.05642 2.75685 9.37217C2.64723 9.68792 2.49395 10.2402 2.41627 10.5996C2.33859 10.959 2.24558 11.6139 2.20955 12.0552C2.16703 12.5772 2.16703 13.1374 2.20955 13.6594C2.24558 14.1006 2.33859 14.7556 2.41627 15.1149C2.49395 15.4743 2.64723 16.0266 2.75685 16.3424C2.86647 16.6581 3.12054 17.2486 3.32129 17.6546C3.52212 18.0605 3.88909 18.6794 4.13672 19.03C4.38442 19.3806 4.91853 19.9995 5.32366 20.4054C5.7288 20.8114 6.34654 21.3465 6.69643 21.5947C7.04632 21.8428 7.66406 22.2105 8.0692 22.4117C8.47433 22.6129 9.06368 22.8674 9.37882 22.9773C9.69395 23.0871 10.2483 23.2413 10.6108 23.32C10.9733 23.3987 11.627 23.4903 12.0635 23.5234C12.5336 23.5592 13.1807 23.5592 13.6508 23.5234C14.0873 23.4903 14.741 23.3987 15.1035 23.32C15.4659 23.2413 16.0203 23.0871 16.3355 22.9773C16.6506 22.8674 17.24 22.6129 17.6451 22.4117C18.0502 22.2105 18.668 21.8428 19.0179 21.5947C19.3677 21.3465 19.9855 20.8114 20.3906 20.4054C20.7958 19.9995 21.3299 19.3806 21.5776 19.03C21.8252 18.6794 22.1922 18.0605 22.393 17.6546C22.5937 17.2486 22.8478 16.6581 22.9574 16.3424C23.0671 16.0266 23.2203 15.4743 23.298 15.1149C23.3757 14.7556 23.4687 14.1006 23.5047 13.6594C23.5473 13.1374 23.5473 12.5772 23.5047 12.0552C23.4687 11.6139 23.3757 10.959 23.298 10.5996C23.2203 10.2402 23.0671 9.68792 22.9574 9.37217C22.8478 9.05642 22.5937 8.46592 22.393 8.06C22.1922 7.65407 21.8252 7.03512 21.5776 6.68455C21.3299 6.33398 20.7958 5.71503 20.3906 5.30911C19.9855 4.90318 19.3677 4.36804 19.0179 4.11985C18.668 3.87174 18.0502 3.50406 17.6451 3.30284C17.24 3.10169 16.6506 2.84713 16.3355 2.7373C16.0203 2.62746 15.4629 2.47214 15.0966 2.39209C14.7304 2.31212 14.1295 2.22248 13.7612 2.19296C13.3929 2.1635 12.7902 2.15297 12.4219 2.16961C12.0536 2.18618 11.466 2.24603 11.1161 2.30252Z" fill="white"/>
</svg>
