<svg width="16" height="16" viewBox="0 0 16 16" fill="none" xmlns="http://www.w3.org/2000/svg">
<path fill-rule="evenodd" clip-rule="evenodd" d="M4.14892 1.38303C2.12541 2.14245 0.469807 2.77078 0.469776 2.77938C0.469745 2.78797 1.04574 3.01022 1.74979 3.27326L3.02984 3.75152L6.6633 2.32375C8.66171 1.53848 10.3091 0.88883 10.3242 0.88011C10.3393 0.871359 10.3323 0.853388 10.3086 0.840136C10.2849 0.826884 9.77464 0.63195 9.17467 0.406887C8.39396 0.114064 8.0475 -0.00160836 7.95594 1.6869e-05C7.86763 0.00161084 6.68883 0.429859 4.14892 1.38303ZM9.19749 3.22594C7.18354 4.00311 5.52725 4.64771 5.51681 4.6583C5.50637 4.6689 6.05387 4.88593 6.73345 5.14056L7.96909 5.6035L11.7183 4.19927C13.7804 3.42691 15.4675 2.78797 15.4676 2.77938C15.4676 2.77078 14.8935 2.54928 14.1919 2.28712C13.4902 2.02496 12.9033 1.81102 12.8877 1.81168C12.872 1.8123 11.2115 2.44874 9.19749 3.22594ZM0 7.80212C0 11.9787 0.000499995 12.012 0.0639368 12.143C0.12578 12.2708 0.156029 12.2896 0.977989 12.7124C1.44555 12.9529 3.09721 13.784 4.64832 14.5592C6.19943 15.3345 7.47563 15.9687 7.48432 15.9687C7.49301 15.9687 7.49654 13.8155 7.49219 11.1838L7.48429 6.39892L6.57805 6.0585C6.07962 5.87125 5.66125 5.71789 5.64837 5.71767C5.6355 5.71748 5.62493 6.2174 5.62493 6.82861C5.62493 7.5298 5.61231 7.99005 5.59075 8.07578C5.57194 8.15048 5.51919 8.24681 5.47356 8.28985C5.42791 8.33288 5.33781 8.38233 5.27338 8.39974C5.19385 8.42121 5.11878 8.42105 5.03978 8.39924C4.97579 8.38158 4.51523 8.16323 4.01636 7.91407C3.51749 7.66495 3.06278 7.42597 3.00584 7.38309C2.9489 7.34021 2.88569 7.26783 2.86531 7.22226C2.83972 7.16497 2.82344 6.75378 2.81256 5.89026L2.79684 4.64114L1.60936 4.19545C0.956239 3.95033 0.326965 3.71457 0.210935 3.67154L0 3.59331V7.80212ZM12.2186 4.9996L8.45303 6.4003L8.44512 11.2002C8.44078 13.8401 8.44412 16 8.45259 16C8.46103 16 10.0607 15.4083 12.0073 14.6852C13.954 13.9621 15.6183 13.338 15.7057 13.2984C15.8099 13.2512 15.8881 13.1887 15.9324 13.117L16 13.0075L15.9921 8.30319L15.9842 3.5989L12.2186 4.9996ZM4.3967 11.0271C5.018 11.3376 5.42372 11.5589 5.479 11.6175C5.52765 11.669 5.58003 11.7655 5.59543 11.8318C5.61084 11.8982 5.62378 12.4061 5.62418 12.9606L5.62493 13.9686L4.21648 13.2641L2.80803 12.5596L2.81806 11.7091C2.82712 10.9394 2.83372 10.8493 2.88747 10.7605C2.92012 10.7066 2.99747 10.6331 3.05934 10.5972C3.12121 10.5613 3.22381 10.5316 3.28734 10.5312C3.3748 10.5307 3.64396 10.651 4.3967 11.0271Z" fill="black"/>
</svg>
