<svg width="64" height="64" viewBox="0 0 64 64" fill="none" xmlns="http://www.w3.org/2000/svg">
<path fill-rule="evenodd" clip-rule="evenodd" d="M0 25.7324V51.4648H15.1614H30.323L30.4561 51.7572C30.5295 51.918 30.9584 52.5405 31.4095 53.1403C31.8606 53.7402 32.8126 54.8101 33.5251 55.5177C34.2376 56.2253 35.4247 57.2743 36.1628 57.8487C36.9011 58.4231 38.1998 59.3557 39.0489 59.9212C39.8981 60.4866 41.2587 61.3269 42.0725 61.7887C42.8863 62.2505 44.1728 62.9369 44.9315 63.3141L46.3109 64L48.1481 63.0796C49.1584 62.5733 50.6221 61.7745 51.4005 61.3047C52.1789 60.8348 53.2935 60.1328 53.8774 59.7448C54.4614 59.3568 55.587 58.5365 56.3791 57.9219C57.1711 57.3071 58.4017 56.2253 59.1137 55.5177C59.8257 54.8101 60.795 53.7151 61.2676 53.0844C61.7402 52.4539 62.3919 51.404 62.7157 50.7514C63.0397 50.0987 63.4197 49.1146 63.5605 48.5643C63.8049 47.6087 63.8164 47.1243 63.8164 37.772V27.9803L57.6406 26.4401L51.4648 24.8998V12.45V0H25.7324H0V25.7324ZM17.498 10.0356C17.498 14.423 17.5314 18.0127 17.5722 18.0127C17.6129 18.0127 19.4657 17.2333 21.6893 16.2806L25.7324 14.5486L29.7755 16.2806C31.9992 17.2333 33.8519 18.0127 33.8927 18.0127C33.9335 18.0127 33.9668 14.423 33.9668 10.0356V2.05859H41.6865H49.4062V13.1879C49.4062 19.309 49.3629 24.3182 49.3097 24.3195C49.2566 24.3207 48.558 24.1631 47.7571 23.9692L46.3009 23.6166L37.5606 25.7989L28.8203 27.9813L28.8278 37.8254C28.8345 46.7934 28.8553 47.7466 29.0617 48.5378L29.2881 49.4062H15.6734H2.05859V25.7324V2.05859H9.77832H17.498V10.0356ZM31.9082 8.42737C31.9082 11.9302 31.8751 14.7961 31.8347 14.7961C31.7943 14.7961 30.4048 14.2154 28.7468 13.5057L25.7324 12.2151L22.718 13.5057C21.0601 14.2154 19.6705 14.7961 19.6301 14.7961C19.5897 14.7961 19.5566 11.9302 19.5566 8.42737V2.05859H25.7324H31.9082V8.42737ZM54.1346 27.7542L61.7578 29.6544L61.7538 37.9542C61.7516 42.5191 61.6955 46.6719 61.6291 47.1828C61.5629 47.6936 61.3404 48.5446 61.135 49.0738C60.9295 49.6028 60.4254 50.5455 60.0148 51.1685C59.5389 51.8906 58.6818 52.8853 57.6503 53.9124C56.7604 54.7986 55.4823 55.9319 54.8101 56.4307C54.1378 56.9296 53.0667 57.686 52.4298 58.1118C51.7929 58.5374 50.7218 59.2059 50.0496 59.5973C49.3773 59.9887 48.2628 60.611 47.5728 60.9802L46.3184 61.6514L45.0639 60.9802C44.3739 60.611 43.2594 59.9887 42.5872 59.5973C41.9149 59.2059 40.8438 58.5375 40.2069 58.112C39.57 57.6866 38.47 56.9039 37.7623 56.3727C37.0547 55.8415 35.7772 54.7082 34.9234 53.8541C33.9658 52.8961 33.0846 51.8672 32.6232 51.1685C32.2118 50.5455 31.7093 49.6082 31.5064 49.0856C31.3035 48.563 31.0804 47.7411 31.0107 47.259C30.9381 46.7566 30.8829 42.8146 30.8815 38.0185L30.8789 29.6544L38.3735 27.7698C42.4955 26.7332 46.0128 25.8781 46.1897 25.8696C46.3666 25.861 49.9419 26.7091 54.1346 27.7542ZM49.799 41.7619L44.2091 47.8741L40.6321 44.299L37.0552 40.7239L36.3159 41.463L35.5767 42.2023L39.9504 46.5714L44.3241 50.9407L50.6285 44.0554C54.096 40.2687 56.9537 37.111 56.979 37.0386C57.0044 36.9663 56.7149 36.6244 56.3357 36.2791C55.9566 35.9336 55.5885 35.6507 55.5177 35.6503C55.4469 35.65 52.8736 38.4001 49.799 41.7619ZM4.11719 38.084V39.1133H5.14648H6.17578V38.084V37.0547H5.14648H4.11719V38.084ZM8.23437 38.084V39.1133H9.26367H10.293V38.084V37.0547H9.26367H8.23437V38.084ZM4.11719 42.2012V43.2305H9.26367H14.4102V42.2012V41.1719H9.26367H4.11719V42.2012ZM4.11719 46.3184V47.3477H9.26367H14.4102V46.3184V45.2891H9.26367H4.11719V46.3184Z" fill="#CE0005"/>
</svg>
