<svg width="20" height="18" viewBox="0 0 20 18" fill="none" xmlns="http://www.w3.org/2000/svg">
<path fill-rule="evenodd" clip-rule="evenodd" d="M4.9887 0.022666C4.91334 0.0315244 4.71954 0.0651028 4.55805 0.0972428C4.39655 0.129421 4.12347 0.199682 3.95121 0.253438C3.77895 0.307156 3.49174 0.416106 3.31297 0.495528C3.13417 0.574951 2.80824 0.75367 2.58869 0.892716C2.31937 1.06326 2.04856 1.28245 1.75669 1.56622C1.5187 1.79756 1.22013 2.1305 1.09325 2.306C0.966358 2.48154 0.762382 2.81604 0.639997 3.04935C0.517612 3.28269 0.362692 3.63309 0.295745 3.82805C0.228758 4.02301 0.134835 4.35289 0.0869929 4.5611C0.0122933 4.88613 0 5.05206 0 5.73464C0 6.41367 0.0126065 6.58565 0.086484 6.91379C0.134091 7.12506 0.235961 7.47285 0.312932 7.68662C0.389902 7.90043 0.524189 8.21305 0.611339 8.3814C0.698488 8.54971 0.861747 8.82371 0.97411 8.99028C1.08647 9.15685 1.28258 9.41287 1.40986 9.55922C1.53718 9.70557 3.41669 11.6346 5.58654 13.8461C7.75643 16.0575 9.57909 17.8968 9.63692 17.9334C9.71095 17.9803 9.81998 18.0001 10.0052 18.0001C10.2095 18.0001 10.293 17.9826 10.3789 17.9217C10.4397 17.8787 12.2209 16.0814 14.3372 13.9279C16.4536 11.7744 18.3285 9.85056 18.5037 9.65276C18.6789 9.45496 18.9141 9.15685 19.0262 8.99028C19.1384 8.82371 19.3015 8.54971 19.3887 8.3814C19.4758 8.21305 19.6101 7.90043 19.6871 7.68662C19.764 7.47285 19.8659 7.12506 19.9135 6.91379C19.9874 6.58565 20 6.41367 20 5.73464C20 5.05206 19.9877 4.88613 19.913 4.5611C19.8652 4.35289 19.7712 4.02301 19.7043 3.82805C19.6373 3.63309 19.4827 3.28387 19.3608 3.052C19.2388 2.82013 19.0343 2.48563 18.9062 2.30865C18.7781 2.13167 18.4792 1.79831 18.242 1.56788C17.9735 1.30713 17.6711 1.05936 17.4414 0.911985C17.2383 0.781683 16.9683 0.624353 16.8413 0.562344C16.7142 0.500336 16.4711 0.399979 16.301 0.339296C16.1308 0.27865 15.8818 0.201499 15.7476 0.167883C15.6134 0.134228 15.3531 0.0828574 15.1693 0.0537459C14.9855 0.0245966 14.6224 0.000444391 14.3624 6.58288e-05C14.0575 -0.00035059 13.7349 0.0263759 13.4538 0.0752861C13.2142 0.117042 12.8543 0.203808 12.6542 0.268164C12.454 0.332519 12.0864 0.48667 11.8371 0.610687C11.5879 0.734704 11.2531 0.931102 11.0933 1.04713C10.9334 1.16312 10.6228 1.42944 10.4032 1.6389L10.0038 2.01977L9.5417 1.58689C9.28757 1.34885 8.92116 1.04974 8.72744 0.922281C8.53373 0.794819 8.25192 0.630713 8.10119 0.557575C7.95046 0.484436 7.64215 0.363524 7.41605 0.288871C7.18996 0.214219 6.86403 0.125824 6.69176 0.0923971C6.50932 0.0570016 6.11707 0.0263759 5.75214 0.0190696C5.40762 0.0121798 5.06407 0.0137698 4.9887 0.022666ZM6.39813 1.47585C6.51656 1.49963 6.74559 1.56076 6.90709 1.61179C7.06859 1.66279 7.32796 1.76807 7.48347 1.84571C7.63898 1.92335 7.87392 2.06278 8.00558 2.15556C8.13725 2.24835 8.53572 2.61298 8.89113 2.96584C9.2465 3.31869 9.60105 3.63884 9.67904 3.67731C9.75699 3.71573 9.90146 3.74719 10 3.74719C10.0999 3.74719 10.245 3.71478 10.3277 3.67398C10.4094 3.6337 10.7574 3.31949 11.1009 2.97575C11.4445 2.63202 11.833 2.27265 11.9644 2.17722C12.0957 2.08174 12.3813 1.91854 12.5991 1.81459C12.8237 1.70734 13.1576 1.58613 13.3707 1.53445C13.5773 1.48437 13.9128 1.43156 14.1162 1.41714C14.337 1.40147 14.6212 1.40828 14.8216 1.43406C15.0061 1.45783 15.2564 1.50224 15.3778 1.53283C15.4991 1.56338 15.7366 1.63992 15.9055 1.70291C16.0744 1.76591 16.3766 1.92188 16.577 2.04953C16.7774 2.17718 17.0752 2.41234 17.2389 2.57213C17.4026 2.73192 17.6306 2.99419 17.7455 3.15497C17.8604 3.31574 18.0313 3.59705 18.1254 3.78009C18.2195 3.96316 18.3412 4.26234 18.396 4.44496C18.4507 4.62757 18.5149 4.89026 18.5387 5.0287C18.5625 5.1671 18.5823 5.48479 18.5827 5.73464C18.5831 5.98449 18.5553 6.34382 18.521 6.53318C18.4867 6.7225 18.4034 7.02914 18.3357 7.21459C18.268 7.40001 18.163 7.64695 18.1023 7.76332C18.0416 7.87973 17.909 8.09267 17.8077 8.23652C17.7064 8.38041 17.5611 8.56629 17.4848 8.64957C17.4086 8.73285 15.6979 10.4833 13.6833 12.5394C11.6686 14.5955 10.0074 16.2735 9.99154 16.2683C9.97573 16.263 8.57652 14.8447 6.88219 13.1166C5.18786 11.3885 3.50293 9.66824 3.13789 9.29388C2.77285 8.91956 2.39728 8.50905 2.30328 8.38166C2.20928 8.25428 2.05373 8.00692 1.95765 7.83199C1.86154 7.65702 1.73054 7.36057 1.66653 7.17318C1.60252 6.98579 1.52222 6.67189 1.48808 6.47564C1.45394 6.27936 1.42599 5.94592 1.42599 5.73464C1.42599 5.52337 1.45429 5.18993 1.48894 4.99364C1.52355 4.7974 1.59367 4.50814 1.6448 4.35088C1.69589 4.19363 1.82305 3.90289 1.92735 3.70483C2.03165 3.50673 2.22036 3.20952 2.3467 3.04435C2.47303 2.87915 2.68312 2.64474 2.81357 2.52337C2.94402 2.40204 3.15762 2.22817 3.28827 2.13697C3.41892 2.04582 3.65883 1.90541 3.82146 1.82496C3.98414 1.74456 4.24719 1.63901 4.40614 1.59041C4.56505 1.54184 4.83602 1.47964 5.00828 1.45223C5.19072 1.4232 5.50127 1.40873 5.75214 1.41755C5.98901 1.42588 6.2797 1.45212 6.39813 1.47585Z" fill="#8E8B8B"/>
</svg>
