<svg width="20" height="18" viewBox="0 0 20 18" fill="none" xmlns="http://www.w3.org/2000/svg">
<path fill-rule="evenodd" clip-rule="evenodd" d="M4.9887 0.022605C4.91334 0.0314633 4.71954 0.0650418 4.55805 0.0971817C4.39655 0.12936 4.12347 0.199621 3.95121 0.253377C3.77895 0.307095 3.49174 0.416045 3.31297 0.495467C3.13417 0.57489 2.80824 0.753609 2.58869 0.892655C2.31937 1.0632 2.04856 1.28238 1.75669 1.56616C1.5187 1.79749 1.22013 2.13044 1.09325 2.30594C0.966358 2.48148 0.762382 2.81598 0.639997 3.04929C0.517612 3.28263 0.362692 3.63303 0.295745 3.82799C0.228758 4.02295 0.134835 4.35283 0.0869929 4.56104C0.0122933 4.88607 0 5.05199 0 5.73458C0 6.41361 0.0126065 6.58559 0.086484 6.91373C0.134091 7.125 0.235961 7.47279 0.312932 7.68656C0.389902 7.90037 0.524189 8.21299 0.611339 8.38134C0.698488 8.54965 0.861747 8.82365 0.97411 8.99022C1.08647 9.15678 1.28258 9.41281 1.40986 9.55916C1.53718 9.70551 3.41669 11.6346 5.58654 13.846C7.75643 16.0574 9.57909 17.8968 9.63692 17.9334C9.71095 17.9803 9.81998 18 10.0052 18C10.2095 18 10.293 17.9825 10.3789 17.9217C10.4397 17.8786 12.2209 16.0814 14.3372 13.9278C16.4536 11.7743 18.3285 9.8505 18.5037 9.6527C18.6789 9.4549 18.9141 9.15678 19.0262 8.99022C19.1384 8.82365 19.3015 8.54965 19.3887 8.38134C19.4758 8.21299 19.6101 7.90037 19.6871 7.68656C19.764 7.47279 19.8659 7.125 19.9135 6.91373C19.9874 6.58559 20 6.41361 20 5.73458C20 5.05199 19.9877 4.88607 19.913 4.56104C19.8652 4.35283 19.7712 4.02295 19.7043 3.82799C19.6373 3.63303 19.4827 3.28381 19.3608 3.05194C19.2388 2.82007 19.0343 2.48557 18.9062 2.30859C18.7781 2.13161 18.4792 1.79825 18.242 1.56782C17.9735 1.30707 17.6711 1.0593 17.4414 0.911924C17.2383 0.781622 16.9683 0.624292 16.8413 0.562283C16.7142 0.500275 16.4711 0.399918 16.301 0.339235C16.1308 0.278589 15.8818 0.201438 15.7476 0.167821C15.6134 0.134167 15.3531 0.0827963 15.1693 0.0536849C14.9855 0.0245356 14.6224 0.000383356 14.3624 4.79367e-06C14.0575 -0.000411625 13.7349 0.0263149 13.4538 0.0752251C13.2142 0.116981 12.8543 0.203747 12.6542 0.268103C12.454 0.332458 12.0864 0.486609 11.8371 0.610626C11.5879 0.734643 11.2531 0.931041 11.0933 1.04707C10.9334 1.16306 10.6228 1.42938 10.4032 1.63884L10.0038 2.01971L9.5417 1.58682C9.28757 1.34878 8.92116 1.04968 8.72744 0.92222C8.53373 0.794758 8.25192 0.630652 8.10119 0.557514C7.95046 0.484375 7.64215 0.363462 7.41605 0.28881C7.18996 0.214157 6.86403 0.125763 6.69176 0.0923361C6.50932 0.0569405 6.11707 0.0263148 5.75214 0.0190086C5.40762 0.0121187 5.06407 0.0137088 4.9887 0.022605ZM6.39813 1.47579C6.51656 1.49957 6.74559 1.5607 6.90709 1.61173C7.06859 1.66273 7.32796 1.768 7.48347 1.84565C7.63898 1.92329 7.87392 2.06272 8.00558 2.1555C8.13725 2.24829 8.53572 2.61292 8.89113 2.96578C9.2465 3.31863 9.60105 3.63878 9.67904 3.67725C9.75699 3.71567 9.90146 3.74713 10 3.74713C10.0999 3.74713 10.245 3.71472 10.3277 3.67391C10.4094 3.63364 10.7574 3.31943 11.1009 2.97569C11.4445 2.63196 11.833 2.27259 11.9644 2.17715C12.0957 2.08168 12.3813 1.91848 12.5991 1.81453C12.8237 1.70728 13.1576 1.58607 13.3707 1.53439C13.5773 1.48431 13.9128 1.4315 14.1162 1.41708C14.337 1.4014 14.6212 1.40822 14.8216 1.434C15.0061 1.45777 15.2564 1.50218 15.3778 1.53277C15.4991 1.56332 15.7366 1.63986 15.9055 1.70285C16.0744 1.76585 16.3766 1.92181 16.577 2.04947C16.7774 2.17712 17.0752 2.41228 17.2389 2.57207C17.4026 2.73186 17.6306 2.99413 17.7455 3.15491C17.8604 3.31568 18.0313 3.59699 18.1254 3.78003C18.2195 3.9631 18.3412 4.26228 18.396 4.44489C18.4507 4.62751 18.5149 4.8902 18.5387 5.02864C18.5625 5.16704 18.5823 5.48473 18.5827 5.73458C18.5831 5.98443 18.5553 6.34376 18.521 6.53312C18.4867 6.72244 18.4034 7.02907 18.3357 7.21453C18.268 7.39995 18.163 7.64689 18.1023 7.76326C18.0416 7.87967 17.909 8.09261 17.8077 8.23646C17.7064 8.38035 17.5611 8.56623 17.4848 8.64951C17.4086 8.73279 15.6979 10.4832 13.6833 12.5394C11.6686 14.5955 10.0074 16.2735 9.99154 16.2682C9.97573 16.2629 8.57652 14.8447 6.88219 13.1165C5.18786 11.3884 3.50293 9.66818 3.13789 9.29382C2.77285 8.9195 2.39728 8.50899 2.30328 8.3816C2.20928 8.25422 2.05373 8.00686 1.95765 7.83193C1.86154 7.65696 1.73054 7.36051 1.66653 7.17312C1.60252 6.98573 1.52222 6.67182 1.48808 6.47558C1.45394 6.27929 1.42599 5.94586 1.42599 5.73458C1.42599 5.5233 1.45429 5.18987 1.48894 4.99358C1.52355 4.79734 1.59367 4.50808 1.6448 4.35082C1.69589 4.19357 1.82305 3.90283 1.92735 3.70477C2.03165 3.50667 2.22036 3.20946 2.3467 3.04429C2.47303 2.87908 2.68312 2.64468 2.81357 2.52331C2.94402 2.40198 3.15762 2.22811 3.28827 2.13691C3.41892 2.04576 3.65883 1.90535 3.82146 1.8249C3.98414 1.7445 4.24719 1.63895 4.40614 1.59035C4.56505 1.54178 4.83602 1.47958 5.00828 1.45217C5.19072 1.42313 5.50127 1.40867 5.75214 1.41749C5.98901 1.42582 6.2797 1.45206 6.39813 1.47579Z" fill="black"/>
</svg>
