<svg width="12" height="15" viewBox="0 0 12 15" fill="none" xmlns="http://www.w3.org/2000/svg">
<path fill-rule="evenodd" clip-rule="evenodd" d="M3.97827 0.0251079C3.88375 0.041507 3.71003 0.0938404 3.59221 0.141437C3.4744 0.189001 3.29636 0.283933 3.1966 0.352371C3.0968 0.42081 2.94753 0.554551 2.86488 0.649548C2.78223 0.744545 2.65888 0.939897 2.59078 1.08363C2.52264 1.22737 2.45115 1.42289 2.43185 1.51808C2.41258 1.61331 2.39678 1.94037 2.39678 2.24493V2.79868H1.37205C0.362316 2.79868 0.345748 2.79976 0.240965 2.87218C0.182477 2.91259 0.104333 2.98717 0.067303 3.0379C0.0170189 3.1068 0 3.1785 0 3.32136C0 3.46421 0.0170189 3.53592 0.067303 3.60482C0.104333 3.65555 0.182477 3.7301 0.240965 3.77054C0.31496 3.8217 0.39452 3.84404 0.502552 3.84404H0.657812L0.667818 8.47466C0.677148 12.8133 0.681426 13.1176 0.73541 13.3013C0.767099 13.4091 0.841673 13.6002 0.901158 13.726C0.960611 13.8517 1.07932 14.0425 1.16493 14.1499C1.25054 14.2572 1.40712 14.4162 1.51284 14.5031C1.61858 14.5901 1.80643 14.7106 1.93029 14.7711C2.05416 14.8315 2.2496 14.9077 2.36461 14.9404C2.56099 14.9964 2.78268 15 6 15C9.21732 15 9.43901 14.9964 9.63539 14.9404C9.7504 14.9077 9.94584 14.8315 10.0697 14.7711C10.1936 14.7106 10.3814 14.5901 10.4872 14.5031C10.5929 14.4162 10.7495 14.2572 10.8351 14.1499C10.9207 14.0425 11.0394 13.8517 11.0988 13.726C11.1583 13.6002 11.2329 13.4091 11.2646 13.3013C11.3186 13.1176 11.3229 12.8133 11.3322 8.47466L11.3422 3.84404H11.4974C11.6055 3.84404 11.685 3.8217 11.759 3.77054C11.8175 3.7301 11.8957 3.65555 11.9327 3.60482C11.983 3.53592 12 3.46421 12 3.32136C12 3.1785 11.983 3.1068 11.9327 3.0379C11.8957 2.98717 11.8175 2.91259 11.759 2.87218C11.6543 2.79976 11.6377 2.79868 10.6279 2.79868H9.60322V2.24493C9.60322 1.94037 9.58742 1.61331 9.56815 1.51808C9.54885 1.42289 9.47736 1.22737 9.40922 1.08363C9.34111 0.939897 9.21992 0.74706 9.13991 0.655134C9.0599 0.563175 8.89615 0.42045 8.77605 0.337965C8.65592 0.255479 8.44182 0.146925 8.30027 0.0967805L8.0429 0.00560541L6.09651 0.000443913C5.02601 -0.00239816 4.07279 0.00870883 3.97827 0.0251079ZM7.93599 1.10105C8.00107 1.11937 8.12381 1.18177 8.20874 1.23969C8.32124 1.31639 8.38954 1.39754 8.46042 1.53863C8.55491 1.72679 8.55796 1.74734 8.569 2.26548L8.58035 2.79868H6H3.41965L3.431 2.26548C3.44204 1.74734 3.44509 1.72679 3.53958 1.53863C3.61071 1.39698 3.67869 1.31646 3.79261 1.23877C3.87828 1.18036 3.99378 1.11921 4.04928 1.10287C4.10474 1.08654 4.97534 1.07194 5.98391 1.07044C7.14199 1.06867 7.86129 1.07998 7.93599 1.10105ZM10.2788 8.36506C10.2788 12.7987 10.2776 12.8901 10.2143 13.0937C10.1789 13.2079 10.0999 13.3699 10.039 13.4537C9.97805 13.5376 9.86011 13.6538 9.77691 13.7119C9.69375 13.77 9.53971 13.8447 9.43464 13.8779C9.25416 13.935 9.06444 13.9383 6.00051 13.9383C2.84442 13.9383 2.75196 13.9365 2.55298 13.8728C2.44054 13.8368 2.28096 13.7567 2.19838 13.6948C2.1158 13.6329 2.00139 13.5131 1.94416 13.4287C1.88693 13.3442 1.81335 13.1878 1.78063 13.0811C1.72401 12.8964 1.72118 12.6716 1.72118 8.36559V3.84404H6H10.2788V8.36506ZM4.00382 6.00836C3.94465 6.04887 3.86651 6.13338 3.83016 6.1962C3.76527 6.30841 3.76391 6.35555 3.755 8.84217C3.74693 11.1006 3.75153 11.3888 3.79753 11.5118C3.82591 11.5876 3.89218 11.6865 3.94478 11.7315C3.99738 11.7764 4.09464 11.8297 4.16091 11.8498C4.24813 11.8764 4.31688 11.8768 4.41014 11.8513C4.48099 11.8319 4.58525 11.77 4.64191 11.7138C4.69856 11.6576 4.76017 11.5581 4.77886 11.4927C4.8018 11.4125 4.80968 10.5442 4.80318 8.82006C4.79366 6.28757 4.79299 6.26542 4.72626 6.17399C4.68923 6.12325 4.61109 6.04871 4.5526 6.00826C4.47597 5.95528 4.3995 5.93476 4.27882 5.93476C4.1584 5.93476 4.08119 5.95544 4.00382 6.00836ZM7.4474 6.00826C7.38891 6.04871 7.31077 6.12325 7.27374 6.17399C7.20701 6.26542 7.20634 6.28757 7.19681 8.82006C7.19032 10.5442 7.1982 11.4125 7.22114 11.4927C7.23983 11.5581 7.30144 11.6576 7.35809 11.7138C7.41474 11.77 7.51901 11.8319 7.58986 11.8513C7.68312 11.8768 7.75187 11.8764 7.83909 11.8498C7.90536 11.8297 8.00262 11.7764 8.05522 11.7315C8.10782 11.6865 8.17409 11.5876 8.20247 11.5118C8.24847 11.3888 8.25307 11.1006 8.245 8.84217C8.23609 6.35555 8.23473 6.30841 8.16984 6.1962C8.13349 6.13338 8.05535 6.04887 7.99618 6.00836C7.91881 5.95544 7.8416 5.93476 7.72118 5.93476C7.6005 5.93476 7.52403 5.95528 7.4474 6.00826Z" fill="#8E8B8B"/>
</svg>
