<svg width="69" height="22" viewBox="0 0 69 22" fill="none" xmlns="http://www.w3.org/2000/svg">
<path fill-rule="evenodd" clip-rule="evenodd" d="M17.2507 21.8271H11.2792L6.8013 4.76016C6.58877 3.97507 6.13747 3.28101 5.47365 2.9539C3.81699 2.13183 1.99148 1.4776 0 1.14764V0.490559H9.61966C10.9473 0.490559 11.943 1.4776 12.109 2.62393L14.4324 14.9349L20.401 0.490559H26.2065L17.2507 21.8271ZM29.5256 21.8271H23.886L28.5299 0.490559H34.1695L29.5256 21.8271ZM41.466 6.40297C41.6319 5.25379 42.6277 4.59672 43.7894 4.59672C45.6149 4.43173 47.6034 4.76167 49.2629 5.5809L50.2589 0.98704C48.5994 0.329962 46.7736 0 45.117 0C39.6433 0 35.6604 2.95543 35.6604 7.05719C35.6604 10.1776 38.4817 11.816 40.4731 12.8031C42.6277 13.7873 43.4574 14.4443 43.2915 15.4286C43.2915 16.9049 41.6319 17.5619 39.9753 17.5619C37.9838 17.5619 35.9923 17.0698 34.1697 16.2478L33.174 20.8445C35.1654 21.6637 37.32 21.9936 39.3114 21.9936C45.4489 22.1558 49.2629 19.2032 49.2629 14.7715C49.2629 9.19055 41.466 8.86344 41.466 6.40297ZM69 21.8271L64.5219 0.490559H59.7119C58.7163 0.490559 57.7208 1.14764 57.3888 2.13183L49.0967 21.8271H54.9023L56.0612 18.7095H63.1944L63.8579 21.8271H69ZM60.5416 6.23586L62.1984 14.2772H57.5545L60.5416 6.23586Z" fill="#15195A"/>
</svg>
