<svg width="24" height="24" viewBox="0 0 24 24" fill="none" xmlns="http://www.w3.org/2000/svg">
<path fill-rule="evenodd" clip-rule="evenodd" d="M13.0153 0.0647935C13.4336 0.104812 14.0498 0.191921 14.3845 0.258493C14.7192 0.325141 15.3183 0.481755 15.7157 0.60655C16.1132 0.73142 16.7611 0.982364 17.1554 1.16418C17.5498 1.34607 18.2002 1.71105 18.6008 1.97531C19.0013 2.23957 19.5908 2.67714 19.9108 2.94779C20.2307 3.21837 20.7389 3.72101 21.0401 4.06478C21.3413 4.40847 21.7759 4.96903 22.006 5.31047C22.2359 5.65183 22.5903 6.26257 22.7935 6.66772C22.9967 7.07287 23.2675 7.71287 23.3953 8.09004C23.5231 8.4672 23.7001 9.10886 23.7887 9.51604C23.9054 10.0521 23.96 10.6296 23.9869 11.6102C24.0182 12.7506 23.9992 13.1077 23.8673 13.8732C23.7811 14.3731 23.6022 15.1178 23.4696 15.5281C23.3371 15.9384 23.0842 16.5787 22.9078 16.9511C22.7314 17.3234 22.4402 17.865 22.2606 18.1546C22.0809 18.4443 21.7206 18.952 21.4599 19.283C21.1992 19.614 20.6583 20.1943 20.258 20.5727C19.8577 20.951 19.1649 21.5021 18.7184 21.7973C18.272 22.0926 17.5934 22.4819 17.2106 22.6624C16.8277 22.8429 16.2064 23.0939 15.8298 23.22C15.4533 23.3462 14.8029 23.5199 14.3845 23.6062C13.9413 23.6977 13.1636 23.7823 12.5208 23.809C11.8343 23.8375 11.1192 23.8204 10.627 23.7637C10.1922 23.7135 9.49041 23.5868 9.06762 23.4822C8.64482 23.3776 7.90922 23.1385 7.43288 22.9509L6.56682 22.6099L3.45944 23.338C1.00284 23.9137 0.320116 24.0494 0.199546 23.9856C0.115717 23.9412 0.0267152 23.8244 0.0017643 23.7259C-0.0240234 23.6243 0.235603 22.207 0.602031 20.4493L1.24779 17.3517L0.996377 16.8061C0.858082 16.5061 0.642348 15.942 0.516909 15.5527C0.391546 15.1634 0.225637 14.5571 0.14835 14.2054C0.0360714 13.6948 0.00769747 13.2403 0.00754533 11.9488C0.00731712 10.5337 0.0292254 10.2346 0.182658 9.55734C0.279115 9.13157 0.442741 8.52227 0.546348 8.20332C0.649955 7.88438 0.952941 7.18337 1.21957 6.64553C1.48627 6.10768 1.90123 5.39683 2.14168 5.06585C2.38214 4.73486 2.77048 4.24719 3.0047 3.98218C3.23884 3.71717 3.70431 3.26508 4.03902 2.9775C4.37373 2.69 4.95566 2.25258 5.33221 2.00547C5.70875 1.75836 6.32492 1.40986 6.70146 1.23098C7.07801 1.0521 7.68117 0.803333 8.04174 0.678237C8.40238 0.553141 9.03688 0.378925 9.45177 0.291065C9.86665 0.203279 10.4958 0.103834 10.8499 0.0700591C11.2041 0.0363592 11.665 0.00506678 11.8742 0.000478175C12.0834 -0.00411043 12.5969 0.0248501 13.0153 0.0647935ZM10.8092 2.62614C10.5164 2.66563 10.0029 2.76733 9.66819 2.85218C9.33348 2.93696 8.77201 3.12193 8.42041 3.26313C8.06882 3.40439 7.53177 3.66106 7.22695 3.83354C6.92214 4.00603 6.37984 4.38026 6.02178 4.66513C5.66379 4.95 5.14538 5.44444 4.8697 5.76391C4.59402 6.08331 4.23269 6.54774 4.06671 6.79597C3.90065 7.04421 3.63159 7.51812 3.46865 7.8491C3.30578 8.18008 3.08381 8.72138 2.97541 9.05191C2.86694 9.38252 2.7259 9.94105 2.66185 10.2931C2.59597 10.6551 2.54455 11.3746 2.54356 11.9488C2.54219 12.6938 2.58441 13.1693 2.70201 13.7341C2.79018 14.1574 2.95168 14.7498 3.06091 15.0505C3.17015 15.3511 3.40924 15.8926 3.59226 16.2538C3.77521 16.615 3.92446 16.9704 3.92393 17.0436C3.92339 17.1169 3.75566 17.9722 3.55134 18.9445C3.34694 19.9167 3.18955 20.7225 3.20149 20.7352C3.21351 20.7478 4.03194 20.5701 5.02024 20.3403C6.00854 20.1104 6.85185 19.9224 6.89438 19.9224C6.93682 19.9224 7.30447 20.0784 7.71137 20.269C8.11819 20.4597 8.74204 20.7089 9.09766 20.823C9.45329 20.9369 9.98388 21.0771 10.2767 21.1345C10.6006 21.1979 11.2863 21.238 12.0264 21.2366C12.9053 21.235 13.4188 21.1969 13.8745 21.0993C14.2217 21.025 14.7522 20.8816 15.0536 20.7808C15.355 20.68 15.9134 20.4428 16.2944 20.2538C16.6754 20.0649 17.2747 19.6969 17.6262 19.4362C17.9775 19.1754 18.5257 18.6922 18.8443 18.3624C19.1629 18.0326 19.5943 17.5125 19.8031 17.2065C20.0119 16.9005 20.2947 16.4306 20.4316 16.1622C20.5686 15.8938 20.7639 15.4556 20.8656 15.1883C20.9674 14.921 21.1165 14.4282 21.197 14.0931C21.2774 13.7579 21.3726 13.1406 21.4085 12.7212C21.4446 12.2988 21.4447 11.5902 21.4087 11.1324C21.373 10.6779 21.2591 9.9837 21.1556 9.58976C21.0521 9.19589 20.8343 8.5683 20.6717 8.1952C20.509 7.82217 20.1513 7.1854 19.8767 6.78033C19.6021 6.37518 19.1675 5.81582 18.9109 5.53719C18.6543 5.25864 18.1129 4.78414 17.7076 4.48272C17.3024 4.18137 16.697 3.79488 16.3623 3.62389C16.0276 3.45291 15.4564 3.20979 15.093 3.08372C14.7296 2.95757 14.1476 2.8002 13.7998 2.73393C13.452 2.66774 12.7566 2.60019 12.2546 2.58394C11.7525 2.56769 11.1021 2.58665 10.8092 2.62614ZM8.61295 6.47583C8.70438 6.56918 9.02205 7.18909 9.3188 7.85346C9.61555 8.51783 9.85836 9.14745 9.85836 9.25261C9.85836 9.35769 9.75384 9.59269 9.62604 9.77481C9.49832 9.95685 9.30663 10.231 9.20005 10.3841C9.07941 10.5575 9.00638 10.7659 9.00638 10.9367C9.00638 11.1299 9.08945 11.3302 9.28746 11.6145C9.44203 11.8365 9.93329 12.3665 10.3791 12.7922C10.8248 13.218 11.395 13.7223 11.646 13.9129C11.897 14.1035 12.2907 14.3772 12.5208 14.5213C12.7509 14.6653 13.0495 14.8203 13.1843 14.8657C13.343 14.9192 13.5141 14.9243 13.6698 14.8802C13.802 14.8427 14.1206 14.6122 14.3778 14.3679C14.6502 14.1092 14.9435 13.9025 15.0801 13.8728C15.2489 13.8362 15.6636 13.9203 16.5611 14.1735C17.2467 14.3669 17.9012 14.5722 18.0156 14.6298C18.1299 14.6874 18.279 14.8408 18.3469 14.9706C18.425 15.1199 18.4549 15.3004 18.4285 15.4617C18.4055 15.602 18.2316 15.9315 18.0422 16.194C17.8527 16.4566 17.5416 16.8073 17.3508 16.9734C17.1599 17.1395 16.8504 17.3467 16.6629 17.4339C16.4755 17.521 16.0607 17.6282 15.7413 17.6722C15.3251 17.7294 14.981 17.7284 14.527 17.6687C14.1786 17.6228 13.6355 17.502 13.3202 17.4002C13.0049 17.2985 12.5017 17.0931 12.2021 16.9439C11.9024 16.7947 11.4031 16.5061 11.0924 16.3027C10.7818 16.0993 10.2662 15.7219 9.94653 15.4641C9.62696 15.2062 9.03993 14.6735 8.642 14.2801C8.24416 13.8868 7.71152 13.2928 7.45836 12.9603C7.20527 12.6277 6.87239 12.1332 6.71865 11.8613C6.56492 11.5894 6.33077 11.0494 6.19834 10.6612C5.99561 10.0668 5.95643 9.83656 5.9502 9.20311C5.94335 8.5088 5.96115 8.41244 6.18092 7.95178C6.33671 7.62523 6.60942 7.25446 6.96969 6.8794C7.31489 6.52006 7.60882 6.28288 7.75754 6.24369C7.88792 6.20939 8.09636 6.20931 8.22065 6.24369C8.34495 6.27799 8.52143 6.3824 8.61295 6.47583Z" fill="#29A71A"/>
</svg>
